
<!-- Generator: visioncortex VTracer 0.6.4 -->
<svg version="1.1" xmlns="http://www.w3.org/2000/svg" viewBox="0 0 528 494" preserveAspectRatio="xMidYMid meet">
<path d="M0 0 C174.24 0 348.48 0 528 0 C528 163.02 528 326.04 528 494 C353.76 494 179.52 494 0 494 C0 330.98 0 167.96 0 0 Z " fill="#061121" transform="translate(0,0)"/>
<path d="M0 0 C0.651 0.422 1.302 0.844 1.973 1.279 C5.333 3.72 7.622 5.629 8.75 9.718 C9.042 13.112 9.081 16.427 9.036 19.834 C9.051 21.13 9.065 22.426 9.08 23.761 C9.119 27.348 9.109 30.934 9.09 34.521 C9.078 38.394 9.112 42.267 9.14 46.139 C9.187 53.723 9.19 61.306 9.178 68.89 C9.168 75.057 9.172 81.224 9.187 87.391 C9.19 88.708 9.19 88.708 9.194 90.052 C9.198 91.836 9.202 93.62 9.207 95.404 C9.245 112.134 9.232 128.864 9.203 145.593 C9.178 160.885 9.215 176.176 9.282 191.467 C9.35 207.179 9.377 222.891 9.36 238.603 C9.351 247.42 9.358 256.236 9.408 265.053 C9.449 272.561 9.452 280.068 9.405 287.577 C9.382 291.405 9.376 295.23 9.419 299.058 C9.682 324.411 9.682 324.411 4.192 331.131 C1.972 333.359 -0.435 335.187 -3 337 C-4.537 338.441 -6.062 339.896 -7.562 341.375 C-23.89 355.354 -43.163 358.462 -64 357 C-82.412 354.753 -97.737 344.005 -109.41 330.137 C-115.485 322.109 -119.985 313.893 -122 304 C-122.887 304.082 -123.774 304.165 -124.688 304.25 C-140.533 304.186 -155.934 293.927 -166.773 283.254 C-180.992 267.569 -186.446 248.193 -186.207 227.457 C-186.02 224.327 -185.52 221.448 -184.938 218.375 C-184.301 212.621 -186.952 209.554 -190.379 205.132 C-200.538 191.752 -201.747 172.924 -199.716 156.734 C-197.357 143.075 -191.617 130.868 -181.82 120.988 C-178.776 117.663 -178.96 114.881 -179.116 110.555 C-179.586 96.144 -176.251 82.981 -170 70 C-169.374 68.635 -169.374 68.635 -168.734 67.242 C-164.772 59.249 -159.243 53.252 -153 47 C-152.341 46.33 -151.683 45.659 -151.004 44.969 C-139.185 33.785 -119.108 23.878 -102.75 23.812 C-101.389 23.905 -101.389 23.905 -100 24 C-99.691 23.01 -99.691 23.01 -99.375 22 C-97.479 17.864 -94.806 14.558 -92 11 C-91.257 9.989 -90.515 8.979 -89.75 7.938 C-68.508 -16.701 -24.897 -19.084 0 0 Z " fill="#00F4E9" transform="translate(247,95)"/>
<path d="M0 0 C8.324 6.375 16.437 14.531 21.082 24.055 C21.082 24.715 21.082 25.375 21.082 26.055 C22.175 26.137 23.268 26.22 24.395 26.305 C38.666 28.142 51.941 36.419 61.023 47.402 C68.254 57.257 73.721 68.599 73.082 81.055 C73.923 81.147 74.763 81.24 75.629 81.336 C79.571 82.156 82.822 83.657 86.332 85.555 C86.99 85.909 87.647 86.264 88.324 86.629 C94.354 90.004 99.26 94.104 104.082 99.055 C104.777 99.717 105.472 100.38 106.188 101.062 C120.436 115.559 125.339 136.816 125.331 156.472 C125.144 172.859 120.752 188.302 110.082 201.055 C108.572 202.4 107.051 203.734 105.52 205.055 C102.588 207.813 102.588 207.813 101.988 211.668 C102.496 214.246 103.168 216.593 104.082 219.055 C108.717 232.961 105.611 252.802 99.352 265.789 C91.573 280.776 78.972 292.955 63.082 299.055 C54.062 301.885 45.609 303.781 36.082 303.055 C35.935 303.733 35.788 304.411 35.637 305.109 C31.846 320.837 21.307 334.435 7.781 343.191 C-9.129 353.394 -27.431 358.181 -46.98 353.492 C-63.037 349.271 -75.798 340.242 -86.918 328.055 C-88.198 325.495 -88.05 323.683 -88.061 320.815 C-88.07 319.138 -88.07 319.138 -88.08 317.428 C-88.082 316.189 -88.083 314.951 -88.085 313.675 C-88.091 312.367 -88.097 311.06 -88.103 309.712 C-88.119 306.071 -88.128 302.429 -88.137 298.787 C-88.145 295.666 -88.156 292.545 -88.168 289.425 C-88.21 278.245 -88.237 267.066 -88.262 255.887 C-88.264 255.005 -88.266 254.123 -88.268 253.214 C-88.307 235.707 -88.341 218.2 -88.363 200.694 C-88.368 196.843 -88.373 192.993 -88.378 189.142 C-88.379 188.185 -88.38 187.228 -88.382 186.242 C-88.403 170.737 -88.452 155.232 -88.512 139.727 C-88.573 123.815 -88.608 107.903 -88.617 91.992 C-88.623 83.055 -88.641 74.118 -88.689 65.182 C-88.729 57.571 -88.746 49.961 -88.732 42.35 C-88.726 38.466 -88.73 34.583 -88.766 30.7 C-88.804 26.489 -88.788 22.28 -88.766 18.069 C-88.786 16.842 -88.806 15.615 -88.826 14.351 C-88.754 8.703 -88.62 5.038 -84.555 0.885 C-83.375 -0.099 -82.163 -1.046 -80.918 -1.945 C-79.916 -2.702 -78.915 -3.459 -77.883 -4.238 C-52.658 -20.024 -24.142 -16.095 0 0 Z " fill="#00F3E7" transform="translate(347.91796875,96.9453125)"/>
<path d="M0 0 C3.039 2.846 5.23 5.729 7.438 9.25 C19.19 27.119 33.623 43.311 53 53 C53 67.85 53 82.7 53 98 C39.485 98 39.485 98 34.719 97.598 C33.693 97.512 32.667 97.426 31.609 97.338 C30.583 97.247 29.557 97.156 28.5 97.062 C27.443 96.975 26.386 96.888 25.297 96.799 C16.062 96.008 16.062 96.008 13 95 C11.91 93.293 11.91 93.293 11.062 91.188 C9.023 86.689 6.445 84.223 2 82 C-4.13 81.479 -9.945 81.12 -15 85 C-18.214 89.002 -21.012 92.896 -22 98 C-29.759 100.161 -37.582 101.738 -45.5 103.188 C-46.468 103.366 -47.435 103.545 -48.432 103.729 C-49.352 103.895 -50.271 104.06 -51.219 104.23 C-52.043 104.379 -52.867 104.527 -53.717 104.68 C-56 105 -56 105 -60 105 C-60.516 103.928 -61.031 102.855 -61.562 101.75 C-63.88 97.784 -66.58 95.373 -71 94 C-76.425 93.235 -80.59 93.27 -85.5 95.812 C-86.325 96.534 -87.15 97.256 -88 98 C-88.598 98.516 -89.196 99.031 -89.812 99.562 C-92.789 103.166 -92.334 107.789 -92.27 112.211 C-91.782 117.254 -90.028 120.271 -86.199 123.535 C-81.775 126.619 -78.491 127.646 -73 127 C-72.01 126.67 -71.02 126.34 -70 126 C-68.976 126.996 -67.956 127.997 -66.938 129 C-66.369 129.557 -65.801 130.114 -65.215 130.688 C-63.345 132.639 -61.583 134.629 -59.822 136.676 C-56.244 140.774 -52.492 144.653 -48.641 148.492 C-47.97 149.164 -47.299 149.836 -46.607 150.529 C-45.203 151.933 -43.798 153.336 -42.392 154.738 C-40.238 156.887 -38.09 159.041 -35.941 161.195 C-34.571 162.565 -33.2 163.935 -31.828 165.305 C-30.867 166.269 -30.867 166.269 -29.887 167.252 C-29.289 167.847 -28.691 168.442 -28.075 169.054 C-27.552 169.576 -27.029 170.098 -26.491 170.636 C-24.837 172.219 -24.837 172.219 -22 174 C-21.41 177.047 -21.41 177.047 -21.062 180.75 C-20.151 188.06 -20.151 188.06 -16 194 C-12.541 196.642 -9.983 197.943 -5.57 198.199 C-1.585 199.093 -0.513 200.178 1.663 203.557 C2.042 204.198 2.422 204.839 2.812 205.5 C3.23 206.166 3.647 206.833 4.077 207.519 C5.41 209.665 6.706 211.83 8 214 C8.872 215.429 9.744 216.857 10.617 218.285 C15.871 226.976 20.616 235.84 25 245 C20.834 249.166 14.023 249.161 8.375 249.375 C-7.94 249.063 -21.791 242.52 -33 231 C-42.243 220.849 -47.592 209.902 -47 196 C-47.764 196.035 -48.529 196.07 -49.316 196.105 C-66.856 196.549 -80.879 192.578 -93.711 180.418 C-104.345 169.185 -109.568 155.38 -109.402 139.973 C-108.543 131.488 -106.193 123.225 -104 115 C-104.625 114.697 -105.249 114.394 -105.893 114.082 C-114.49 109.668 -118.703 100.418 -121.816 91.719 C-125.538 77.769 -122.701 62.706 -116.188 50.062 C-109.834 39.395 -100.77 30.959 -88.574 27.434 C-79.297 25.871 -69.664 26.161 -61 30 C-60.297 30.306 -59.595 30.611 -58.871 30.926 C-56.736 32.112 -55.449 33.025 -54 35 C-53.442 37.809 -53.311 40.483 -53.219 43.344 C-52.8 48.434 -50.028 51.048 -46.438 54.375 C-41.09 56.903 -35.539 57.158 -29.875 55.305 C-24.615 52.607 -21.83 48.489 -20 43 C-19.616 38.393 -19.661 34.792 -21.5 30.5 C-22 27 -22 27 -20.809 25.164 C-19.473 23.709 -18.103 22.285 -16.711 20.883 C-13.19 17.139 -10.151 13.103 -7.062 9 C-5.929 7.5 -4.795 6 -3.66 4.5 C-3.172 3.85 -2.683 3.201 -2.18 2.531 C-1 1 -1 1 0 0 Z " fill="#021F2C" transform="translate(187,186)"/>
<path d="M0 0 C6.884 5.635 14.432 14.222 17.617 22.66 C18.701 24.654 18.701 24.654 21.645 25.238 C23.423 25.532 23.423 25.532 25.238 25.832 C37.929 28.28 48.42 32.785 56.113 43.707 C57.022 45.229 57.898 46.771 58.738 48.332 C59.151 49.056 59.563 49.781 59.988 50.527 C63.577 57.878 65.418 67.408 62.738 75.332 C58.879 81.345 53.203 85.834 47.738 90.332 C46.257 91.642 44.777 92.954 43.301 94.27 C42.421 95.012 42.421 95.012 41.523 95.77 C38.089 98.776 34.926 102.068 31.738 105.332 C30.253 104.837 30.253 104.837 28.738 104.332 C22.867 103.854 17.547 103.521 12.113 105.957 C8.577 109.493 6.865 112.711 6.473 117.734 C6.48 119.484 6.48 119.484 6.488 121.27 C6.244 126.114 6.012 128.947 2.488 132.395 C1.259 133.4 0.011 134.382 -1.262 135.332 C-4.388 138.376 -7.327 141.521 -10.217 144.787 C-14.996 150.107 -19.996 155.184 -25.072 160.218 C-26.647 161.779 -28.218 163.344 -29.788 164.91 C-33.11 168.22 -36.436 171.526 -39.762 174.832 C-43.648 178.694 -47.532 182.559 -51.413 186.427 C-52.96 187.968 -54.51 189.506 -56.061 191.044 C-56.993 191.972 -57.925 192.901 -58.885 193.857 C-59.708 194.676 -60.531 195.494 -61.38 196.337 C-63.313 198.194 -63.313 198.194 -64.262 200.332 C-64.922 200.332 -65.582 200.332 -66.262 200.332 C-72.612 121.724 -72.612 121.724 -58.715 104.309 C-51.978 96.699 -43.877 90.49 -35.269 85.136 C-30.762 82.228 -27.612 78.469 -24.262 74.332 C-15.18 63.849 -15.18 63.849 -11.059 62.738 C-9.118 62.83 -7.188 63.079 -5.262 63.332 C0.946 62.104 4.16 59.429 7.738 54.332 C9.984 49.841 9.43 43.641 8.02 38.934 C6.007 34.568 4.171 32.462 -0.262 30.332 C-5.691 29.511 -11.371 29.422 -16.324 32.02 C-20.275 35.13 -22.546 38.324 -23.262 43.332 C-23.507 48.591 -23.507 48.591 -22.515 53.681 C-22.262 56.332 -22.262 56.332 -23.767 58.566 C-24.53 59.319 -25.293 60.071 -26.08 60.847 C-26.937 61.707 -27.795 62.568 -28.679 63.455 C-29.621 64.369 -30.564 65.284 -31.535 66.227 C-32.499 67.182 -33.463 68.139 -34.424 69.097 C-36.959 71.615 -39.512 74.113 -42.068 76.609 C-44.157 78.654 -46.233 80.712 -48.308 82.772 C-52.587 87.016 -56.876 91.251 -61.185 95.464 C-61.95 96.213 -62.714 96.962 -63.502 97.733 C-65.262 99.332 -65.262 99.332 -66.262 99.332 C-66.318 87.224 -66.322 75.117 -66.276 63.009 C-66.253 55.677 -66.291 48.348 -66.361 41.016 C-66.4 36.009 -66.396 31.003 -66.383 25.996 C-66.385 23.56 -66.406 21.124 -66.444 18.689 C-66.494 15.256 -66.483 11.828 -66.457 8.395 C-66.487 7.377 -66.516 6.359 -66.547 5.31 C-66.458 0.913 -66.286 -1.634 -63.112 -4.839 C-43.177 -19.144 -18.643 -13.749 0 0 Z " fill="#02212E" transform="translate(341.26171875,113.66796875)"/>
<path d="M0 0 C0.886 0.4 1.772 0.801 2.685 1.213 C6.888 3.569 9.533 5.374 10.897 10.126 C11.24 14.385 11.226 18.545 11.125 22.812 C11.122 24.486 11.124 26.159 11.131 27.832 C11.136 31.783 11.108 35.732 11.063 39.682 C10.981 47.645 11 55.607 11.021 63.57 C11.07 82.713 11.051 101.856 11 121 C9.564 120.056 8.13 119.11 6.697 118.163 C5.499 117.373 5.499 117.373 4.277 116.567 C-8.125 108.031 -18.24 95.953 -26.562 83.562 C-27.088 82.781 -27.613 81.999 -28.154 81.193 C-30.379 77.796 -32.193 75.024 -33 71 C-32.237 70.464 -31.474 69.928 -30.688 69.375 C-26.959 66.08 -25.291 63.377 -24.68 58.379 C-24.494 53.826 -24.658 50.723 -26.625 46.562 C-30.693 42.173 -33.811 39.779 -39.875 39.5 C-46.441 39.797 -50.931 41.88 -55.5 46.562 C-58.107 52.537 -57.966 58.425 -55.688 64.5 C-54.256 66.62 -52.937 68.34 -51 70 C-52.561 75.116 -55.74 78.613 -59.125 82.625 C-63.828 88.281 -68.265 93.98 -72.414 100.059 C-74.401 102.49 -76.06 102.875 -79.121 103.281 C-79.886 103.353 -80.65 103.426 -81.438 103.5 C-83.772 103.721 -85.782 103.924 -88 104.699 C-90.929 105.14 -92.151 103.953 -94.562 102.312 C-99.825 98.972 -105.073 96.868 -111 95 C-111.665 94.773 -112.33 94.546 -113.016 94.312 C-124.002 90.989 -134.485 93.145 -145 97 C-143.053 76.509 -136.831 59.913 -120.816 46.148 C-110.856 38.55 -96.628 31.166 -83.832 30.945 C-77.591 31.035 -77.591 31.035 -72.113 28.547 C-70.553 26.443 -69.285 24.282 -68 22 C-59.003 8.705 -49.472 0.096 -33.469 -3.492 C-21.874 -5.19 -10.766 -4.949 0 0 Z " fill="#02222F" transform="translate(230,105)"/>
<path d="M0 0 C4.852 13.371 4.758 27.934 -1 41 C-7.67 54.116 -17.589 61.505 -31 67 C-37.878 69.236 -44.306 69.237 -51.5 69.125 C-52.609 69.116 -53.717 69.107 -54.859 69.098 C-57.573 69.074 -60.286 69.041 -63 69 C-63.102 69.787 -63.204 70.575 -63.308 71.386 C-65.348 86.457 -70.98 99.963 -83.312 109.375 C-97.141 118.696 -112.392 122.319 -128.934 119.5 C-140.004 116.46 -150.584 109.624 -157 100 C-157.9 94.209 -158.741 87.624 -155.375 82.551 C-153.027 80.484 -150.594 78.748 -148 77 C-146.238 75.578 -144.488 74.14 -142.75 72.688 C-141.352 71.556 -141.352 71.556 -139.926 70.402 C-137.419 68.344 -134.962 66.24 -132.514 64.112 C-124.926 57.555 -116.929 51.661 -108.719 45.908 C-106.193 44.136 -103.678 42.35 -101.163 40.562 C-98.906 38.963 -96.638 37.38 -94.369 35.8 C-93.253 35.02 -92.142 34.236 -91.033 33.447 C-89.474 32.338 -87.899 31.251 -86.324 30.164 C-85.418 29.529 -84.511 28.895 -83.577 28.241 C-79.556 26.305 -77.055 27.648 -73 29 C-67.025 29.535 -62.088 29.513 -57 26 C-54.526 23.385 -53.111 21.281 -51.789 17.926 C-50 15 -50 15 -47.129 13.969 C-45.364 13.737 -45.364 13.737 -43.562 13.5 C-29.917 11.34 -16.693 7.296 -4.336 1.102 C-2 0 -2 0 0 0 Z " fill="#021D2B" transform="translate(433,314)"/>
<path d="M0 0 C1.511 0.1 3.02 0.224 4.527 0.367 C12.733 1.03 20.94 1.667 29.148 2.297 C30.339 2.388 31.53 2.48 32.757 2.574 C35.659 2.797 38.562 3.02 41.465 3.242 C41.582 17.559 41.67 31.876 41.724 46.194 C41.75 52.842 41.785 59.49 41.842 66.139 C41.896 72.558 41.926 78.977 41.939 85.396 C41.948 87.842 41.966 90.288 41.993 92.734 C42.03 96.167 42.035 99.598 42.032 103.031 C42.05 104.037 42.068 105.042 42.087 106.078 C42.027 114.325 39.367 119.709 34.184 126.02 C33.451 126.732 32.719 127.445 31.965 128.18 C31.233 128.911 30.5 129.641 29.746 130.395 C27.394 132.3 25.32 133.282 22.465 134.242 C22.21 133.732 21.956 133.221 21.693 132.695 C15.496 120.363 8.75 108.562 1.242 96.977 C0.621 96.01 -0.001 95.043 -0.641 94.047 C-1.199 93.191 -1.757 92.335 -2.333 91.453 C-3.535 89.242 -3.535 89.242 -3.535 86.242 C-3.05 85.475 -2.566 84.708 -2.066 83.918 C0.597 79.264 0.186 74.445 -0.535 69.242 C-2.205 64.927 -4.421 62.085 -8.098 59.305 C-13.671 56.875 -19.498 56.127 -25.289 58.254 C-26.401 58.743 -26.401 58.743 -27.535 59.242 C-28.092 58.674 -28.649 58.105 -29.223 57.52 C-29.986 56.747 -30.749 55.975 -31.535 55.18 C-32.278 54.426 -33.02 53.671 -33.785 52.895 C-35.926 50.83 -38.087 48.895 -40.344 46.965 C-44.73 43.158 -48.663 39.008 -52.598 34.742 C-53.942 33.293 -55.287 31.845 -56.633 30.398 C-57.278 29.704 -57.922 29.009 -58.586 28.293 C-61.077 25.672 -63.664 23.161 -66.283 20.67 C-67.535 19.242 -67.535 19.242 -67.535 17.242 C-68.195 17.242 -68.855 17.242 -69.535 17.242 C-70.925 15.281 -72.261 13.281 -73.535 11.242 C-68.518 10.263 -63.501 9.284 -58.484 8.306 C-56.779 7.974 -55.074 7.641 -53.369 7.308 C-50.911 6.828 -48.454 6.35 -45.996 5.871 C-44.861 5.649 -44.861 5.649 -43.704 5.423 C-42.289 5.148 -40.873 4.877 -39.457 4.611 C-37.7 4.274 -35.95 3.898 -34.202 3.519 C-30.789 3.165 -29.447 4.515 -26.656 6.305 C-21.141 8.742 -14.506 7.934 -8.973 5.992 C-6.448 4.448 -6.448 4.448 -5.387 2.125 C-3.535 0.242 -3.535 0.242 0 0 Z " fill="#021D2B" transform="translate(199.53515625,292.7578125)"/>
<path d="M0 0 C17.747 6.419 27.147 15.073 35.087 31.968 C40.913 44.939 41.186 62.735 37.035 76.309 C30.389 93.589 19.919 105.071 3.192 112.862 C-26.624 126.075 -26.624 126.075 -37 124 C-39.062 121.688 -39.062 121.688 -41 119 C-42.058 118.4 -42.058 118.4 -43.138 117.788 C-45 116 -45 116 -45.163 112.773 C-45.038 111.416 -44.893 110.06 -44.734 108.707 C-44.122 101.799 -43.945 95.008 -44.078 88.074 C-44.104 86.188 -44.13 84.302 -44.156 82.416 C-44.2 79.523 -44.251 76.632 -44.322 73.74 C-44.389 70.893 -44.424 68.047 -44.453 65.199 C-44.497 63.899 -44.497 63.899 -44.541 62.573 C-44.551 60.275 -44.511 58.241 -44 56 C-41.585 53.616 -41.585 53.616 -39 52 C-36.342 47.508 -35.928 44.929 -36.395 39.77 C-36.439 35.239 -35.83 33.043 -32.781 29.672 C-31.382 28.335 -29.953 27.028 -28.5 25.75 C-27.804 25.095 -27.108 24.44 -26.391 23.766 C-22.316 19.963 -18.096 16.32 -13.893 12.661 C-11.055 10.171 -8.275 7.621 -5.5 5.062 C-4.964 4.569 -4.428 4.076 -3.875 3.568 C-2.583 2.38 -1.291 1.19 0 0 Z " fill="#021E2B" transform="translate(417,194)"/>
<path d="M0 0 C2.64 0.66 5.28 1.32 8 2 C8.025 7.546 8.043 13.092 8.055 18.638 C8.06 20.517 8.067 22.397 8.075 24.276 C8.118 33.583 8.126 42.892 7.699 52.191 C7.645 53.454 7.59 54.717 7.534 56.018 C7 59 7 59 5.45 60.602 C3.75 61.438 3.75 61.438 1.848 62.109 C-1.955 63.942 -3.524 68.229 -5 72 C-5.193 73.497 -5.361 74.997 -5.5 76.5 C-6.228 80.447 -7.94 82.1 -11.168 84.425 C-13.506 85.983 -15.873 87.482 -18.271 88.944 C-34.96 99.137 -50.628 111.232 -65.445 123.957 C-66.036 124.462 -66.626 124.967 -67.235 125.488 C-68.386 126.474 -69.533 127.464 -70.675 128.46 C-73.119 130.559 -74.91 131.97 -78 133 C-78.359 125.871 -78.602 118.744 -78.769 111.607 C-78.839 109.187 -78.934 106.767 -79.056 104.348 C-80.149 82.117 -80.149 82.117 -73.841 74.707 C-71.387 72.259 -68.813 70.012 -66.135 67.813 C-62.252 64.516 -58.782 60.798 -55.223 57.16 C-53.708 55.648 -52.19 54.138 -50.67 52.631 C-49.534 51.504 -49.534 51.504 -48.375 50.354 C-47.23 49.22 -47.23 49.22 -46.062 48.062 C-42.988 45.015 -39.917 41.963 -36.848 38.91 C-36.162 38.233 -35.477 37.556 -34.77 36.858 C-30.876 32.984 -27.197 28.993 -23.609 24.834 C-21.427 22.347 -19.113 20.018 -16.758 17.695 C-15.837 16.783 -14.917 15.87 -13.969 14.93 C-12.534 13.514 -11.098 12.099 -9.663 10.684 C-8.255 9.294 -6.85 7.901 -5.445 6.508 C-4.615 5.689 -3.785 4.871 -2.93 4.028 C-0.952 2.147 -0.952 2.147 0 0 Z " fill="#021F2C" transform="translate(354,250)"/>
<path d="M0 0 C2.965 2.566 2.965 2.566 5 5 C5 8.576 3.912 10.053 2 13 C3.485 13.495 3.485 13.495 5 14 C4.01 14.66 3.02 15.32 2 16 C1.051 15.67 0.103 15.34 -0.875 15 C-3.914 13.625 -3.914 13.625 -6.266 15.141 C-9 16 -9 16 -12.305 14.734 C-13.505 14.091 -14.695 13.429 -15.875 12.75 C-23.71 8.393 -30.418 6.625 -39.312 6.688 C-40.154 6.693 -40.996 6.699 -41.863 6.705 C-51.621 6.895 -60.773 8.954 -68 16 C-69.289 19.309 -69.238 22.4 -69.174 25.921 C-69.2 27.395 -69.2 27.395 -69.227 28.899 C-69.275 32.137 -69.26 35.371 -69.246 38.609 C-69.269 40.86 -69.296 43.112 -69.328 45.363 C-69.4 51.28 -69.42 57.197 -69.429 63.115 C-69.449 71.47 -69.539 79.825 -69.622 88.18 C-69.667 92.63 -69.691 97.079 -69.699 101.528 C-69.71 103.551 -69.721 105.574 -69.732 107.597 C-69.73 108.524 -69.727 109.452 -69.724 110.408 C-69.734 111.674 -69.734 111.674 -69.744 112.966 C-69.745 113.701 -69.747 114.436 -69.748 115.193 C-70 117 -70 117 -72 119 C-72 91.94 -72 64.88 -72 37 C-72.66 37 -73.32 37 -74 37 C-74 38.65 -74 40.3 -74 42 C-74.66 41.34 -75.32 40.68 -76 40 C-78.093 40.086 -78.093 40.086 -80 41 C-80.33 41.99 -80.66 42.98 -81 44 C-81 42.68 -81 41.36 -81 40 C-81.66 40 -82.32 40 -83 40 C-82.433 44.13 -82.433 44.13 -81 48 C-81.66 48 -82.32 48 -83 48 C-82.999 49.783 -82.999 49.783 -82.997 51.602 C-82.975 80.024 -82.959 108.445 -82.949 136.866 C-82.948 140.388 -82.946 143.91 -82.945 147.432 C-82.945 148.133 -82.945 148.834 -82.944 149.557 C-82.94 160.807 -82.932 172.056 -82.923 183.306 C-82.913 194.908 -82.908 206.51 -82.906 218.113 C-82.905 224.605 -82.902 231.096 -82.894 237.588 C-82.862 267.408 -83.064 297.193 -84 327 C-84.33 327 -84.66 327 -85 327 C-85.16 286.353 -85.284 245.706 -85.357 205.059 C-85.366 200.261 -85.375 195.464 -85.385 190.666 C-85.386 189.711 -85.388 188.755 -85.39 187.771 C-85.421 172.302 -85.476 156.832 -85.54 141.362 C-85.606 125.491 -85.644 109.62 -85.659 93.749 C-85.668 83.954 -85.699 74.16 -85.755 64.365 C-85.792 57.65 -85.804 50.935 -85.795 44.22 C-85.79 40.345 -85.797 36.47 -85.834 32.595 C-85.875 28.393 -85.861 24.192 -85.842 19.99 C-85.862 18.766 -85.883 17.541 -85.904 16.279 C-85.834 10.636 -85.699 6.981 -81.637 2.831 C-80.457 1.848 -79.246 0.9 -78 0 C-76.998 -0.757 -75.997 -1.513 -74.965 -2.293 C-51.246 -17.136 -23.313 -15.014 0 0 Z M-77 37 C-76 39 -76 39 -76 39 Z M6 7 C7.32 7.66 8.64 8.32 10 9 C10 9.99 10 10.98 10 12 C8.35 10.68 6.7 9.36 5 8 C5.33 7.67 5.66 7.34 6 7 Z M11 11 C12.485 11.99 12.485 11.99 14 13 C13.34 14.32 12.68 15.64 12 17 C11.34 15.35 10.68 13.7 10 12 C10.33 11.67 10.66 11.34 11 11 Z M6 14 C6.99 14.33 7.98 14.66 9 15 C9.33 15.99 9.66 16.98 10 18 C9.01 18.495 9.01 18.495 8 19 C8 18.01 8 17.02 8 16 C6.02 16.99 6.02 16.99 4 18 C4 17.01 4 16.02 4 15 C4.66 14.67 5.32 14.34 6 14 Z M14 15 C15.32 15.66 16.64 16.32 18 17 C17.688 18.938 17.688 18.938 17 21 C16.01 21.33 15.02 21.66 14 22 C13.67 22.66 13.34 23.32 13 24 C13 21 13 21 15 18 C14.67 17.01 14.34 16.02 14 15 Z M10 18 C10.33 18.99 10.66 19.98 11 21 C10.34 20.67 9.68 20.34 9 20 C9.33 19.34 9.66 18.68 10 18 Z M18 20 C18.99 20.495 18.99 20.495 20 21 C20 21.66 20 22.32 20 23 C19.34 23 18.68 23 18 23 C18 22.01 18 21.02 18 20 Z M20 23 C23 25 23 25 23.688 27.125 C23.791 27.744 23.894 28.362 24 29 C23.34 29 22.68 29 22 29 C21.67 28.01 21.34 27.02 21 26 C20.34 25.34 19.68 24.68 19 24 C19.33 23.67 19.66 23.34 20 23 Z " fill="#00FBF5" transform="translate(345,95)"/>
<path d="M0 0 C0.652 0.421 1.304 0.842 1.976 1.276 C5.348 3.72 7.629 5.624 8.737 9.732 C9.01 13.149 9.028 16.487 8.962 19.914 C8.969 21.219 8.976 22.523 8.983 23.867 C9.001 27.478 8.969 31.087 8.929 34.697 C8.894 38.594 8.906 42.491 8.912 46.388 C8.916 53.136 8.891 59.884 8.846 66.632 C8.781 76.389 8.76 86.145 8.75 95.902 C8.732 111.732 8.679 127.562 8.604 143.392 C8.53 158.768 8.473 174.144 8.439 189.52 C8.437 190.468 8.435 191.416 8.433 192.393 C8.423 197.149 8.413 201.905 8.403 206.661 C8.32 246.108 8.179 285.554 8 325 C7.34 325 6.68 325 6 325 C5.67 233.59 5.34 142.18 5 48 C4.34 48.99 3.68 49.98 3 51 C1.571 48.646 0.913 47.52 1.375 44.75 C1.581 44.173 1.787 43.595 2 43 C0.68 42.34 -0.64 41.68 -2 41 C-3.075 43.652 -4.095 46.284 -5 49 C-4.34 49.33 -3.68 49.66 -3 50 C-3.66 50 -4.32 50 -5 50 C-4.893 51.355 -4.893 51.355 -4.785 52.738 C-4.105 61.992 -3.865 71.182 -3.902 80.465 C-3.904 81.878 -3.906 83.292 -3.907 84.705 C-3.91 88.369 -3.92 92.034 -3.931 95.698 C-3.942 99.459 -3.946 103.221 -3.951 106.982 C-3.962 114.322 -3.979 121.661 -4 129 C-4.66 129.33 -5.32 129.66 -6 130 C-6.015 128.761 -6.015 128.761 -6.031 127.498 C-6.072 124.232 -6.113 120.965 -6.155 117.699 C-6.174 116.187 -6.193 114.676 -6.212 113.164 C-6.326 104.078 -6.45 94.992 -6.596 85.907 C-6.649 82.565 -6.702 79.224 -6.754 75.883 C-6.767 75.057 -6.78 74.231 -6.794 73.38 C-6.933 64.42 -7.029 55.467 -6.934 46.506 C-6.895 42.782 -6.891 39.059 -6.891 35.335 C-6.881 33.71 -6.85 32.084 -6.8 30.458 C-6.657 25.809 -6.617 21.493 -8 17 C-11.26 13.621 -14.692 11.781 -19 10 C-19.82 9.639 -20.64 9.278 -21.485 8.906 C-33.748 3.928 -50.08 6.389 -62 11 C-66.185 13.028 -70.126 15.432 -74 18 C-74.33 17.01 -74.66 16.02 -75 15 C-74.237 14.588 -73.474 14.175 -72.688 13.75 C-70.063 12.041 -68.697 10.59 -67 8 C-67.99 7.67 -68.98 7.34 -70 7 C-69.01 5.35 -68.02 3.7 -67 2 C-67.99 2 -68.98 2 -70 2 C-69 -1 -69 -1 -67.438 -2.5 C-65.654 -4.015 -65.654 -4.015 -66 -7 C-64.127 -7.652 -62.251 -8.296 -60.375 -8.938 C-59.331 -9.297 -58.287 -9.657 -57.211 -10.027 C-37.624 -15.961 -16.191 -12.41 0 0 Z M-69 -5 C-68.01 -4.67 -67.02 -4.34 -66 -4 C-66.33 -3.34 -66.66 -2.68 -67 -2 C-67.66 -2.33 -68.32 -2.66 -69 -3 C-69 -3.66 -69 -4.32 -69 -5 Z M-71 -4 C-69 -3 -69 -3 -69 -3 Z M-73 -3 C-71 -2 -71 -2 -71 -2 Z M-75 -2 C-73 -1 -73 -1 -73 -1 Z M-77 -1 C-75 0 -75 0 -75 0 Z M-79 0 C-77 1 -77 1 -77 1 Z M-71 2 C-70.01 3.485 -70.01 3.485 -69 5 C-69.99 5.495 -69.99 5.495 -71 6 C-71 4.68 -71 3.36 -71 2 Z M-73 5 C-72.34 5.66 -71.68 6.32 -71 7 C-71.66 7 -72.32 7 -73 7 C-73 6.34 -73 5.68 -73 5 Z M-76 7 C-74.68 8.32 -73.36 9.64 -72 11 C-74.97 10.505 -74.97 10.505 -78 10 C-77.34 9.01 -76.68 8.02 -76 7 Z M-72 8 C-71.34 8 -70.68 8 -70 8 C-70.33 8.66 -70.66 9.32 -71 10 C-71.33 9.34 -71.66 8.68 -72 8 Z M-78 19 C-77.34 19.33 -76.68 19.66 -76 20 C-77.485 20.99 -77.485 20.99 -79 22 C-78.67 21.01 -78.34 20.02 -78 19 Z M-80 22 C-79.67 22.99 -79.34 23.98 -79 25 C-79.99 25 -80.98 25 -82 25 C-82.33 24.34 -82.66 23.68 -83 23 C-82.01 22.67 -81.02 22.34 -80 22 Z M-2 42 C-1.34 42.66 -0.68 43.32 0 44 C-0.66 44 -1.32 44 -2 44 C-2 43.34 -2 42.68 -2 42 Z M-4 44 C-3.34 44.66 -2.68 45.32 -2 46 C-2.66 46 -3.32 46 -4 46 C-4 45.34 -4 44.68 -4 44 Z M-1 45 C-0.01 45.33 0.98 45.66 2 46 C1.01 46 0.02 46 -1 46 C-1 45.67 -1 45.34 -1 45 Z " fill="#00EDE7" transform="translate(247,95)"/>
<path d="M0 0 C0.33 0 0.66 0 1 0 C1.05 0.76 1.1 1.521 1.152 2.304 C1.386 5.807 1.631 9.31 1.875 12.812 C1.954 14.008 2.032 15.204 2.113 16.436 C3.063 29.835 3.983 42.621 14.188 52.375 C24.314 60.569 35.465 61.022 48 62 C48 62.33 48 62.66 48 63 C47.087 63.135 47.087 63.135 46.155 63.272 C25.856 65.955 25.856 65.955 10.203 78.184 C9.806 78.783 9.409 79.382 9 80 C8.624 80.548 8.247 81.096 7.859 81.66 C2.318 91.069 1.656 104.322 1 115 C-1.417 112.583 -1.361 111.638 -1.711 108.309 C-1.822 107.363 -1.933 106.418 -2.047 105.443 C-2.263 103.467 -2.474 101.491 -2.68 99.514 C-3.895 89.289 -7.358 79.576 -15.562 72.875 C-24.782 66.401 -35.077 65.12 -46 64 C-46 63.67 -46 63.34 -46 63 C-45.124 62.865 -45.124 62.865 -44.231 62.728 C-30.348 60.527 -18.699 58.632 -9.465 47.117 C-1.661 35.839 -1.792 22.224 -1.341 8.983 C-1.31 8.108 -1.278 7.233 -1.246 6.332 C-1.222 5.545 -1.198 4.759 -1.174 3.948 C-1 2 -1 2 0 0 Z " fill="#00F9F4" transform="translate(427,46)"/>
<path d="M0 0 C1.625 -0.027 3.25 -0.046 4.875 -0.062 C5.78 -0.074 6.685 -0.086 7.617 -0.098 C10 0 10 0 12 1 C12 1.66 12 2.32 12 3 C9.69 2.67 7.38 2.34 5 2 C5.33 2.66 5.66 3.32 6 4 C9.029 4.658 9.029 4.658 12 5 C11.34 7.64 10.68 10.28 10 13 C8.68 11.35 7.36 9.7 6 8 C5.01 8.495 5.01 8.495 4 9 C4 8.34 4 7.68 4 7 C3.34 7 2.68 7 2 7 C2.33 9.31 2.66 11.62 3 14 C1.35 13.67 -0.3 13.34 -2 13 C-2.33 14.98 -2.66 16.96 -3 19 C-4 17 -5 15 -6 13 C-5.34 13 -4.68 13 -4 13 C-4 12.34 -4 11.68 -4 11 C-3.34 10.67 -2.68 10.34 -2 10 C-2 8.68 -2 7.36 -2 6 C-3.32 5.67 -4.64 5.34 -6 5 C-5.196 4.732 -4.391 4.464 -3.562 4.188 C-2.717 3.796 -1.871 3.404 -1 3 C-0.67 2.01 -0.34 1.02 0 0 Z M-1 7 C0 10 0 10 0 10 Z M9 8 C10 10 10 10 10 10 Z M-3 2 C-1 3 -1 3 -1 3 Z M13 3 C14.938 3.75 14.938 3.75 17 5 C17.75 7.125 17.75 7.125 18 9 C15.5 7.688 15.5 7.688 13 6 C13 5.01 13 4.02 13 3 Z M-8 9 C-7.34 9 -6.68 9 -6 9 C-6.33 9.66 -6.66 10.32 -7 11 C-7.33 10.34 -7.66 9.68 -8 9 Z M-9 10 C-8.34 11.32 -7.68 12.64 -7 14 C-8.65 14 -10.3 14 -12 14 C-11.691 15.258 -11.381 16.516 -11.062 17.812 C-10.801 18.874 -10.801 18.874 -10.535 19.957 C-10.09 21.657 -9.556 23.333 -9 25 C-8.01 25.33 -7.02 25.66 -6 26 C-4.812 28.562 -4.812 28.562 -4 31 C-7.13 30.665 -8.001 29.999 -10.188 27.625 C-12.878 23.729 -13.117 20.935 -13.062 16.312 C-13.053 15.319 -13.044 14.325 -13.035 13.301 C-13.024 12.542 -13.012 11.782 -13 11 C-11.68 10.67 -10.36 10.34 -9 10 Z M4 12 C4.66 12 5.32 12 6 12 C5.67 13.32 5.34 14.64 5 16 C4.34 15.34 3.68 14.68 3 14 C3.33 13.34 3.66 12.68 4 12 Z M-7 14 C-6.67 14.66 -6.34 15.32 -6 16 C-7.65 16.66 -9.3 17.32 -11 18 C-11 17.34 -11 16.68 -11 16 C-9.68 15.34 -8.36 14.68 -7 14 Z M-6 19 C-4 20 -4 20 -4 20 Z M-3 19 C-2.01 19.495 -2.01 19.495 -1 20 C-1.99 20.495 -1.99 20.495 -3 21 C-3 20.34 -3 19.68 -3 19 Z " fill="#00FBF5" transform="translate(185,144)"/>
<path d="M0 0 C0 3 0 3 -1.887 5.074 C-2.924 6.05 -3.962 7.025 -5 8 C-6.552 9.544 -8.1 11.093 -9.645 12.645 C-14.43 17.43 -19.215 22.215 -24 27 C-24.99 26.67 -25.98 26.34 -27 26 C-23.962 22.937 -20.92 19.877 -17.875 16.82 C-16.841 15.782 -15.809 14.742 -14.777 13.701 C-13.287 12.199 -11.794 10.701 -10.301 9.203 C-9.405 8.302 -8.51 7.402 -7.587 6.474 C-5.159 4.152 -2.657 2.052 0 0 Z M-29 28 C-29 32.169 -31.256 34.13 -34 37 C-37.4 40 -37.4 40 -41 40 C-39.854 37.707 -38.655 36.751 -36.688 35.125 C-33.992 32.862 -31.442 30.54 -29 28 Z " fill="#00EBE6" transform="translate(315,174)"/>
<path d="M0 0 C0.99 0.33 1.98 0.66 3 1 C2.01 2.485 2.01 2.485 1 4 C1 3.34 1 2.68 1 2 C0.34 1.67 -0.32 1.34 -1 1 C-0.67 0.67 -0.34 0.34 0 0 Z M-1 4 C-0.01 4.495 -0.01 4.495 1 5 C0.67 6.32 0.34 7.64 0 9 C1.98 9.495 1.98 9.495 4 10 C4 10.99 4 11.98 4 13 C2.68 13 1.36 13 0 13 C0.351 13.907 0.701 14.815 1.062 15.75 C1.984 18.946 2.074 19.992 1 23 C1 23.66 1 24.32 1 25 C2.32 25.33 3.64 25.66 5 26 C4 29 4 29 -1 33 C-1 23.43 -1 13.86 -1 4 Z M5 18 C6.485 18.99 6.485 18.99 8 20 C7.01 20 6.02 20 5 20 C5 19.34 5 18.68 5 18 Z M2 19 C2.99 20.485 2.99 20.485 4 22 C3.34 22.66 2.68 23.32 2 24 C2 22.35 2 20.7 2 19 Z M7 22 C7.66 22 8.32 22 9 22 C8.67 22.66 8.34 23.32 8 24 C7.67 23.34 7.34 22.68 7 22 Z M5 23 C5.66 23 6.32 23 7 23 C7.33 23.99 7.66 24.98 8 26 C7.01 25.67 6.02 25.34 5 25 C5 24.34 5 23.68 5 23 Z M8 26 C9 30 9 30 9 30 Z M5 28 C7 29 7 29 7 29 Z " fill="#00FBEF" transform="translate(263,102)"/>
<path d="M0 0 C0.66 0.66 1.32 1.32 2 2 C-9.55 13.55 -21.1 25.1 -33 37 C-33 32.553 -30.12 30.544 -27.188 27.5 C-26.579 26.858 -25.97 26.216 -25.343 25.554 C-17.061 16.876 -8.527 8.438 0 0 Z " fill="#02232C" transform="translate(354,251)"/>
<path d="M0 0 C0.629 0.165 1.258 0.33 1.906 0.5 C1.906 0.83 1.906 1.16 1.906 1.5 C0.598 1.499 -0.711 1.497 -2.059 1.496 C-8.404 2.201 -11.523 6.027 -15.656 10.562 C-16.379 11.321 -17.101 12.08 -17.846 12.861 C-19.615 14.724 -21.362 16.603 -23.094 18.5 C-23.094 13.55 -19.334 10.994 -16.094 7.5 C-15.469 6.729 -14.843 5.958 -14.199 5.164 C-9.636 -0.133 -6.936 -1.337 0 0 Z " fill="#021925" transform="translate(336.09375,177.5)"/>
<path d="M0 0 C0.99 0 1.98 0 3 0 C2.67 0.66 2.34 1.32 2 2 C1.34 1.34 0.68 0.68 0 0 Z M-2 1 C-0.68 1.66 0.64 2.32 2 3 C1.67 3.66 1.34 4.32 1 5 C1.279 6.677 1.608 8.346 2 10 C1.01 10 0.02 10 -1 10 C-1 10.66 -1 11.32 -1 12 C-1.99 12.33 -2.98 12.66 -4 13 C-4.99 11.68 -5.98 10.36 -7 9 C-7.99 9.495 -7.99 9.495 -9 10 C-7.65 5.581 -5.739 3.657 -2 1 Z M-5 8 C-4.34 8.66 -3.68 9.32 -3 10 C-3 9.34 -3 8.68 -3 8 C-3.66 8 -4.32 8 -5 8 Z M-9 13 C-7.35 13 -5.7 13 -4 13 C-4.959 13.433 -4.959 13.433 -5.938 13.875 C-8.152 14.828 -8.152 14.828 -9 17 C-9 15.68 -9 14.36 -9 13 Z " fill="#00FBEF" transform="translate(182,145)"/>
<path d="M0 0 C1.32 0 2.64 0 4 0 C4.33 0.99 4.66 1.98 5 3 C7.97 3.495 7.97 3.495 11 4 C10.959 4.743 10.918 5.485 10.875 6.25 C11.004 9.088 11.571 10.588 13 13 C11 13 11 13 8.75 10.812 C7.842 9.884 6.935 8.956 6 8 C4.904 7.115 3.8 6.24 2.688 5.375 C1.801 4.591 0.914 3.808 0 3 C0 2.01 0 1.02 0 0 Z M14 14 C15.98 14.99 15.98 14.99 18 16 C18 16.99 18 17.98 18 19 C17.01 18.67 16.02 18.34 15 18 C14.312 15.938 14.312 15.938 14 14 Z " fill="#00F2ED" transform="translate(337,109)"/>
<path d="M0 0 C1.32 1.32 2.64 2.64 4 4 C3.01 4.495 3.01 4.495 2 5 C1.01 3.68 0.02 2.36 -1 1 C-0.67 0.67 -0.34 0.34 0 0 Z M4 4 C5.485 4.99 5.485 4.99 7 6 C6.34 7.32 5.68 8.64 5 10 C4.34 8.35 3.68 6.7 3 5 C3.33 4.67 3.66 4.34 4 4 Z M-1 8 C-0.01 8 0.98 8 2 8 C2.33 8.99 2.66 9.98 3 11 C2.01 11.495 2.01 11.495 1 12 C1 11.01 1 10.02 1 9 C0.34 8.67 -0.32 8.34 -1 8 Z M7 8 C8.32 8.66 9.64 9.32 11 10 C10.688 11.938 10.688 11.938 10 14 C9.01 14.33 8.02 14.66 7 15 C6.67 15.66 6.34 16.32 6 17 C6 14 6 14 8 11 C7.67 10.01 7.34 9.02 7 8 Z M3 11 C3.33 11.99 3.66 12.98 4 14 C3.34 13.67 2.68 13.34 2 13 C2.33 12.34 2.66 11.68 3 11 Z M11 13 C11.99 13.495 11.99 13.495 13 14 C13 14.66 13 15.32 13 16 C12.34 16 11.68 16 11 16 C11 15.01 11 14.02 11 13 Z M13 16 C16 18 16 18 16.688 20.125 C16.791 20.744 16.894 21.362 17 22 C16.34 22 15.68 22 15 22 C14.67 21.01 14.34 20.02 14 19 C13.34 18.34 12.68 17.68 12 17 C12.33 16.67 12.66 16.34 13 16 Z " fill="#00FEF9" transform="translate(352,102)"/>
<path d="M0 0 C0.66 0 1.32 0 2 0 C1.67 0.66 1.34 1.32 1 2 C0.67 1.34 0.34 0.68 0 0 Z M-1 1 C-0.34 2.32 0.32 3.64 1 5 C-0.65 5 -2.3 5 -4 5 C-3.691 6.258 -3.381 7.516 -3.062 8.812 C-2.801 9.874 -2.801 9.874 -2.535 10.957 C-2.09 12.657 -1.556 14.333 -1 16 C-0.01 16.33 0.98 16.66 2 17 C3.188 19.562 3.188 19.562 4 22 C0.87 21.665 -0.001 20.999 -2.188 18.625 C-4.878 14.729 -5.117 11.935 -5.062 7.312 C-5.053 6.319 -5.044 5.325 -5.035 4.301 C-5.024 3.542 -5.012 2.782 -5 2 C-3.68 1.67 -2.36 1.34 -1 1 Z M1 5 C1.33 5.66 1.66 6.32 2 7 C0.35 7.66 -1.3 8.32 -3 9 C-3 8.34 -3 7.68 -3 7 C-1.68 6.34 -0.36 5.68 1 5 Z " fill="#00FAF5" transform="translate(177,153)"/>
<path d="M0 0 C0.33 0 0.66 0 1 0 C1.33 8.91 1.66 17.82 2 27 C0.68 27.33 -0.64 27.66 -2 28 C-1.862 23.708 -1.713 19.417 -1.562 15.125 C-1.523 13.902 -1.484 12.678 -1.443 11.418 C-1.401 10.251 -1.36 9.085 -1.316 7.883 C-1.28 6.804 -1.243 5.725 -1.205 4.614 C-1 2 -1 2 0 0 Z " fill="#00DED9" transform="translate(427,46)"/>
<path d="M0 0 C0.33 0 0.66 0 1 0 C1 2.97 1 5.94 1 9 C0 7 -1 5 -2 3 C-1.34 3 -0.68 3 0 3 C0 2.01 0 1.02 0 0 Z M-3 5 C-2.34 5 -1.68 5 -1 5 C-1 7.97 -1 10.94 -1 14 C-1.66 13.34 -2.32 12.68 -3 12 C-5.093 12.086 -5.093 12.086 -7 13 C-7.33 13.99 -7.66 14.98 -8 16 C-8.812 13.812 -8.812 13.812 -9 11 C-6.625 8.25 -6.625 8.25 -4 6 C-3.67 5.67 -3.34 5.34 -3 5 Z M-4 9 C-3 11 -3 11 -3 11 Z " fill="#00FDF8" transform="translate(272,123)"/>
<path d="M0 0 C3.362 1.441 5.592 3.248 8 6 C8 6.66 8 7.32 8 8 C8.598 8.248 9.196 8.495 9.812 8.75 C12.286 10.164 13.434 11.651 15 14 C8.696 11.137 3.042 6.274 0 0 Z M15 14 C16.65 14.99 18.3 15.98 20 17 C19.01 17.495 19.01 17.495 18 18 C17.01 17.34 16.02 16.68 15 16 C15 15.34 15 14.68 15 14 Z M20 18 C21.32 18.99 22.64 19.98 24 21 C22.68 20.67 21.36 20.34 20 20 C20 19.34 20 18.68 20 18 Z " fill="#00E7E2" transform="translate(207,212)"/>
<path d="M0 0 C0.66 0.33 1.32 0.66 2 1 C0.77 2.195 0.77 2.195 -0.484 3.414 C-1.573 4.484 -2.662 5.554 -3.75 6.625 C-4.289 7.147 -4.828 7.669 -5.383 8.207 C-8.788 11.571 -11.481 14.927 -14 19 C-14.33 18.34 -14.66 17.68 -15 17 C-10.529 10.474 -6.285 4.845 0 0 Z M-16 19 C-16 22 -16 22 -16 22 Z " fill="#021B25" transform="translate(177,110)"/>
<path d="M0 0 C0.99 0 1.98 0 3 0 C2.67 0.66 2.34 1.32 2 2 C1.34 1.34 0.68 0.68 0 0 Z M-4 4 C-4 4.99 -4 5.98 -4 7 C-5.98 7.99 -5.98 7.99 -8 9 C-6.68 7.35 -5.36 5.7 -4 4 Z M-10 9 C-9.34 9.33 -8.68 9.66 -8 10 C-8.99 10 -9.98 10 -11 10 C-10.67 9.67 -10.34 9.34 -10 9 Z M-15 14 C-15 14.99 -15 15.98 -15 17 C-16.98 17.99 -16.98 17.99 -19 19 C-17.25 15.125 -17.25 15.125 -15 14 Z " fill="#00E9E5" transform="translate(416,193)"/>
<path d="M0 0 C0 4.265 -2.445 6.5 -5 9.688 C-5.715 10.597 -5.715 10.597 -6.445 11.525 C-7.624 13.022 -8.811 14.512 -10 16 C-10.66 15.67 -11.32 15.34 -12 15 C-10.755 13.247 -9.503 11.498 -8.25 9.75 C-7.554 8.775 -6.858 7.801 -6.141 6.797 C-4.235 4.308 -2.273 2.15 0 0 Z " fill="#00F1EC" transform="translate(183,189)"/>
<path d="M0 0 C0.66 0.33 1.32 0.66 2 1 C-1.96 4.96 -5.92 8.92 -10 13 C-10 9.281 -9.126 8.639 -6.688 5.938 C-5.765 4.899 -5.765 4.899 -4.824 3.84 C-3 2 -3 2 0 0 Z " fill="#021A25" transform="translate(109,152)"/>
<path d="M0 0 C1.32 0.33 2.64 0.66 4 1 C3.688 2.938 3.688 2.938 3 5 C2.01 5.33 1.02 5.66 0 6 C-0.33 6.66 -0.66 7.32 -1 8 C-1 5 -1 5 1 2 C0.67 1.34 0.34 0.68 0 0 Z M4 4 C4.99 4.495 4.99 4.495 6 5 C6 5.66 6 6.32 6 7 C5.34 7 4.68 7 4 7 C4 6.01 4 5.02 4 4 Z M6 7 C9 9 9 9 9.688 11.125 C9.791 11.744 9.894 12.362 10 13 C9.34 13 8.68 13 8 13 C7.67 12.01 7.34 11.02 7 10 C6.34 9.34 5.68 8.68 5 8 C5.33 7.67 5.66 7.34 6 7 Z " fill="#00FBF5" transform="translate(359,111)"/>
<path d="M0 0 C1.812 0.188 1.812 0.188 4 1 C7 5.179 7 5.179 7 8 C6.34 8 5.68 8 5 8 C3.618 6.374 2.281 4.707 1 3 C0.01 3.33 -0.98 3.66 -2 4 C-1.34 2.68 -0.68 1.36 0 0 Z M7 8 C7.99 9.485 7.99 9.485 9 11 C8.34 11 7.68 11 7 11 C7 10.01 7 9.02 7 8 Z " fill="#00EEE9" transform="translate(186,184)"/>
<path d="M0 0 C0.99 0 1.98 0 3 0 C2.67 0.66 2.34 1.32 2 2 C1.34 1.34 0.68 0.68 0 0 Z M-2 1 C-0.68 1.66 0.64 2.32 2 3 C1.113 3.412 0.226 3.825 -0.688 4.25 C-3.813 5.901 -6.319 7.713 -9 10 C-7.65 5.581 -5.739 3.657 -2 1 Z M-4 6 C-2 7 -2 7 -2 7 Z " fill="#00E9E2" transform="translate(182,145)"/>
<path d="M0 0 C0.66 0.33 1.32 0.66 2 1 C0.515 1.99 0.515 1.99 -1 3 C-0.67 2.01 -0.34 1.02 0 0 Z M-8 9 C-8 9.99 -8 10.98 -8 12 C-9.485 12.99 -9.485 12.99 -11 14 C-10.625 12.062 -10.625 12.062 -10 10 C-9.34 9.67 -8.68 9.34 -8 9 Z M-13 14 C-12.34 14.33 -11.68 14.66 -11 15 C-12.65 16.65 -14.3 18.3 -16 20 C-14.125 15.125 -14.125 15.125 -13 14 Z " fill="#00EAE6" transform="translate(97,139)"/>
<path d="M0 0 C1.132 0.908 2.255 1.827 3.375 2.75 C4.001 3.26 4.628 3.771 5.273 4.297 C7.083 6.082 8.001 7.679 9 10 C5.293 8.764 4.351 7.033 2 4 C1.34 3.67 0.68 3.34 0 3 C0 2.01 0 1.02 0 0 Z M9 10 C10.5 11.375 10.5 11.375 12 13 C12 13.66 12 14.32 12 15 C11.34 15 10.68 15 10 15 C9.67 13.35 9.34 11.7 9 10 Z " fill="#00EEEA" transform="translate(389,147)"/>
<path d="M0 0 C0.66 0.33 1.32 0.66 2 1 C-0.578 3.648 -2.916 5.944 -6 8 C-6 5 -6 5 -4.688 3.613 C-3.125 2.409 -1.562 1.204 0 0 Z M-11 11 C-10.34 11.33 -9.68 11.66 -9 12 C-10.485 12.99 -10.485 12.99 -12 14 C-11.67 13.01 -11.34 12.02 -11 11 Z " fill="#00E5E0" transform="translate(164,97)"/>
<path d="M0 0 C0 4.169 -2.256 6.13 -5 9 C-8.4 12 -8.4 12 -12 12 C-10.854 9.707 -9.655 8.751 -7.688 7.125 C-4.992 4.862 -2.442 2.54 0 0 Z " fill="#00D0CC" transform="translate(286,202)"/>
<path d="M0 0 C4.95 0.99 4.95 0.99 10 2 C10 3.32 10 4.64 10 6 C6.331 5.294 3.295 3.723 0 2 C0 1.34 0 0.68 0 0 Z " fill="#00F8F3" transform="translate(378,141)"/>
<path d="M0 0 C2 1 2 1 2 1 Z M3 2 C5.97 2.495 5.97 2.495 9 3 C8.34 3.66 7.68 4.32 7 5 C5.68 5 4.36 5 3 5 C3 4.01 3 3.02 3 2 Z M1 4 C1.66 4.66 2.32 5.32 3 6 C2.34 6 1.68 6 1 6 C1 5.34 1 4.68 1 4 Z M8 6 C8.66 6.66 9.32 7.32 10 8 C9.01 8 8.02 8 7 8 C7.33 7.34 7.66 6.68 8 6 Z " fill="#00FBEF" transform="translate(334,97)"/>
<path d="M0 0 C0.66 0 1.32 0 2 0 C2.33 0.99 2.66 1.98 3 3 C3.99 3.33 4.98 3.66 6 4 C7.188 6.562 7.188 6.562 8 9 C4.865 8.664 3.975 7.973 1.75 5.625 C0 3 0 3 0 0 Z " fill="#00F8F3" transform="translate(173,166)"/>
<path d="M0 0 C0.33 0.66 0.66 1.32 1 2 C3.025 2.652 3.025 2.652 5 3 C5 3.99 5 4.98 5 6 C2.03 6 -0.94 6 -4 6 C-3.67 5.01 -3.34 4.02 -3 3 C-2.34 3 -1.68 3 -1 3 C-0.67 2.01 -0.34 1.02 0 0 Z " fill="#00F8EE" transform="translate(190,97)"/>
<path d="M0 0 C0.99 0.495 0.99 0.495 2 1 C1.01 1.495 1.01 1.495 0 2 C0 1.34 0 0.68 0 0 Z M-2 2 C-1.34 2.33 -0.68 2.66 0 3 C-2.64 5.64 -5.28 8.28 -8 11 C-8.33 10.34 -8.66 9.68 -9 9 C-4.25 3.125 -4.25 3.125 -2 2 Z " fill="#02242D" transform="translate(85,220)"/>
<path d="M0 0 C0.66 0.33 1.32 0.66 2 1 C1.67 1.99 1.34 2.98 1 4 C0.01 4.33 -0.98 4.66 -2 5 C-1.125 1.125 -1.125 1.125 0 0 Z M-5 6 C-4.34 6.33 -3.68 6.66 -3 7 C-4.65 8.65 -6.3 10.3 -8 12 C-6.125 7.125 -6.125 7.125 -5 6 Z " fill="#00ECE7" transform="translate(169,189)"/>
<path d="M0 0 C0.66 0.99 1.32 1.98 2 3 C1.67 3.33 1.34 3.66 1 4 C0.632 6.328 0.298 8.662 0 11 C-0.66 11 -1.32 11 -2 11 C-2.25 3.375 -2.25 3.375 0 0 Z " fill="#00DCD8" transform="translate(319,154)"/>
<path d="M0 0 C2.97 0 5.94 0 9 0 C7.515 1.98 7.515 1.98 6 4 C4.02 3.34 2.04 2.68 0 2 C0 1.34 0 0.68 0 0 Z " fill="#00F8EC" transform="translate(190,146)"/>
<path d="M0 0 C-0.75 2.438 -0.75 2.438 -2 5 C-4.125 5.812 -4.125 5.812 -6 6 C-6 4.68 -6 3.36 -6 2 C-3 0 -3 0 0 0 Z " fill="#00EEE8" transform="translate(329,144)"/>
<path d="M0 0 C3.63 0 7.26 0 11 0 C8 3 8 3 4.312 3.188 C2.673 3.095 2.673 3.095 1 3 C0.67 2.01 0.34 1.02 0 0 Z " fill="#00E0DC" transform="translate(106,311)"/>
<path d="M0 0 C0.66 0.66 1.32 1.32 2 2 C1.01 2.495 1.01 2.495 0 3 C0 2.01 0 1.02 0 0 Z M-2 2 C-1.34 2.66 -0.68 3.32 0 4 C-0.66 4 -1.32 4 -2 4 C-2 3.34 -2 2.68 -2 2 Z M-5 4 C-3.68 5.32 -2.36 6.64 -1 8 C-3.97 7.505 -3.97 7.505 -7 7 C-6.34 6.01 -5.68 5.02 -5 4 Z " fill="#00FEF9" transform="translate(176,98)"/>
<path d="M0 0 C1.98 0.99 1.98 0.99 4 2 C4 2.99 4 3.98 4 5 C2.68 4.67 1.36 4.34 0 4 C0 2.68 0 1.36 0 0 Z M5 2 C5.66 2.66 6.32 3.32 7 4 C6.01 4.495 6.01 4.495 5 5 C5 4.01 5 3.02 5 2 Z M7 4 C9 5 9 5 9 5 Z " fill="#00EBE2" transform="translate(336,91)"/>
<path d="M0 0 C1.32 0.33 2.64 0.66 4 1 C3.01 2.485 3.01 2.485 2 4 C2.66 4.33 3.32 4.66 4 5 C2.02 5 0.04 5 -2 5 C-1.34 3.35 -0.68 1.7 0 0 Z " fill="#00FDF7" transform="translate(329,144)"/>
<path d="M0 0 C-1.393 3.367 -2.979 4.986 -6 7 C-6 4 -6 4 -4.125 1.812 C-2 0 -2 0 0 0 Z " fill="#022732" transform="translate(445,117)"/>
<path d="M0 0 C3 1 3 1 4.688 4.062 C5.121 5.032 5.554 6.001 6 7 C5.01 7 4.02 7 3 7 C0 2.778 0 2.778 0 0 Z " fill="#00FCF5" transform="translate(356,131)"/>
<path d="M0 0 C1.65 0 3.3 0 5 0 C4.67 0.66 4.34 1.32 4 2 C1.438 2.625 1.438 2.625 -1 3 C-0.67 2.01 -0.34 1.02 0 0 Z M5 1 C9 2 9 2 9 2 Z M9 2 C11 3 11 3 11 3 Z " fill="#00FDF8" transform="translate(369,124)"/>
<path d="M0 0 C1.32 0.66 2.64 1.32 4 2 C2.68 3.65 1.36 5.3 0 7 C-1.125 2.25 -1.125 2.25 0 0 Z " fill="#00ECE2" transform="translate(235,88)"/>
<path d="M0 0 C3.367 1.393 4.986 2.979 7 6 C6.67 6.66 6.34 7.32 6 8 C4.997 6.857 3.998 5.71 3 4.562 C2.443 3.924 1.886 3.286 1.312 2.629 C0 1 0 1 0 0 Z " fill="#00DCD8" transform="translate(207,212)"/>
<path d="M0 0 C1.32 0.33 2.64 0.66 4 1 C3.67 1.99 3.34 2.98 3 4 C1.35 3.67 -0.3 3.34 -2 3 C-1.34 2.01 -0.68 1.02 0 0 Z " fill="#00FDF7" transform="translate(382,127)"/>
<path d="M0 0 C1.32 0.33 2.64 0.66 4 1 C4 1.99 4 2.98 4 4 C3.01 3.67 2.02 3.34 1 3 C0.67 2.01 0.34 1.02 0 0 Z " fill="#00F9F4" transform="translate(351,124)"/>
<path d="M0 0 C1.32 0.66 2.64 1.32 4 2 C2.02 2.99 0.04 3.98 -2 5 C-1.34 3.35 -0.68 1.7 0 0 Z " fill="#00ECE5" transform="translate(320,150)"/>
<path d="M0 0 C0.33 0 0.66 0 1 0 C1 1.98 1 3.96 1 6 C1.66 6.33 2.32 6.66 3 7 C1.02 7.99 1.02 7.99 -1 9 C-0.67 6.03 -0.34 3.06 0 0 Z " fill="#02161E" transform="translate(86,193)"/>
<path d="M0 0 C0.33 1.32 0.66 2.64 1 4 C0.01 4.33 -0.98 4.66 -2 5 C-1.125 1.125 -1.125 1.125 0 0 Z " fill="#00FEF9" transform="translate(163,100)"/>
<path d="M0 0 C0.66 0.66 1.32 1.32 2 2 C0.515 2.99 0.515 2.99 -1 4 C-0.67 2.68 -0.34 1.36 0 0 Z " fill="#012630" transform="translate(185,188)"/>
<path d="M0 0 C0.99 0.33 1.98 0.66 3 1 C3 1.66 3 2.32 3 3 C2.01 2.67 1.02 2.34 0 2 C0 1.34 0 0.68 0 0 Z " fill="#00EFEA" transform="translate(354,128)"/>
<path d="M0 0 C0.99 0.33 1.98 0.66 3 1 C2.34 1.66 1.68 2.32 1 3 C0.67 2.01 0.34 1.02 0 0 Z " fill="#00FEF9" transform="translate(156,126)"/>
</svg>